<mxfile>
    <diagram id="iWGOvPFXtIG0cEeGpGUp" name="Page-1">
        <mxGraphModel dx="645" dy="516" grid="1" gridSize="10" guides="1" tooltips="1" connect="1" arrows="1" fold="1" page="1" pageScale="1" pageWidth="827" pageHeight="1169" math="0" shadow="0">
            <root>
                <mxCell id="0"/>
                <mxCell id="1" parent="0"/>
                <mxCell id="oTCH0D42XKPhX5KPXZE4-1" value="&lt;b&gt;Definición del problema&lt;/b&gt;: calcular el area de un triangulo rectángulo.&lt;br&gt;&lt;b&gt;Datos resultado&lt;/b&gt;: area de un triangulo rectángulo&amp;nbsp;&lt;br&gt;&lt;b&gt;Datos de entrada&lt;/b&gt;: la base y la altura&lt;br&gt;&lt;b&gt;Procedimiento: &lt;/b&gt;&lt;br&gt;area = (base*altura)/2" style="text;html=1;strokeColor=none;fillColor=none;align=center;verticalAlign=middle;whiteSpace=wrap;rounded=0;" parent="1" vertex="1">
                    <mxGeometry x="610" y="30" width="210" height="90" as="geometry"/>
                </mxCell>
                <mxCell id="oTCH0D42XKPhX5KPXZE4-4" value="" style="edgeStyle=orthogonalEdgeStyle;rounded=0;orthogonalLoop=1;jettySize=auto;html=1;" parent="1" source="oTCH0D42XKPhX5KPXZE4-2" target="oTCH0D42XKPhX5KPXZE4-3" edge="1">
                    <mxGeometry relative="1" as="geometry"/>
                </mxCell>
                <mxCell id="oTCH0D42XKPhX5KPXZE4-2" value="Inicio" style="ellipse;whiteSpace=wrap;html=1;fillColor=#60a917;strokeColor=#2D7600;fontColor=#ffffff;" parent="1" vertex="1">
                    <mxGeometry x="330" y="50" width="120" height="80" as="geometry"/>
                </mxCell>
                <mxCell id="oTCH0D42XKPhX5KPXZE4-6" value="" style="edgeStyle=orthogonalEdgeStyle;rounded=0;orthogonalLoop=1;jettySize=auto;html=1;" parent="1" source="oTCH0D42XKPhX5KPXZE4-3" target="oTCH0D42XKPhX5KPXZE4-5" edge="1">
                    <mxGeometry relative="1" as="geometry"/>
                </mxCell>
                <mxCell id="oTCH0D42XKPhX5KPXZE4-3" value="Programa que calcula el area de un rectangulo" style="shape=document;whiteSpace=wrap;html=1;boundedLbl=1;" parent="1" vertex="1">
                    <mxGeometry x="330" y="210" width="120" height="80" as="geometry"/>
                </mxCell>
                <mxCell id="oTCH0D42XKPhX5KPXZE4-8" value="" style="edgeStyle=orthogonalEdgeStyle;rounded=0;orthogonalLoop=1;jettySize=auto;html=1;" parent="1" source="oTCH0D42XKPhX5KPXZE4-5" target="oTCH0D42XKPhX5KPXZE4-7" edge="1">
                    <mxGeometry relative="1" as="geometry"/>
                </mxCell>
                <mxCell id="oTCH0D42XKPhX5KPXZE4-5" value="Ingrese la base" style="shape=document;whiteSpace=wrap;html=1;boundedLbl=1;" parent="1" vertex="1">
                    <mxGeometry x="330" y="310" width="120" height="80" as="geometry"/>
                </mxCell>
                <mxCell id="oTCH0D42XKPhX5KPXZE4-10" value="" style="edgeStyle=orthogonalEdgeStyle;rounded=0;orthogonalLoop=1;jettySize=auto;html=1;" parent="1" source="oTCH0D42XKPhX5KPXZE4-7" target="oTCH0D42XKPhX5KPXZE4-9" edge="1">
                    <mxGeometry relative="1" as="geometry"/>
                </mxCell>
                <mxCell id="oTCH0D42XKPhX5KPXZE4-7" value="se guarda base" style="shape=parallelogram;perimeter=parallelogramPerimeter;whiteSpace=wrap;html=1;fixedSize=1;" parent="1" vertex="1">
                    <mxGeometry x="330" y="410" width="120" height="60" as="geometry"/>
                </mxCell>
                <mxCell id="oTCH0D42XKPhX5KPXZE4-12" value="" style="edgeStyle=orthogonalEdgeStyle;rounded=0;orthogonalLoop=1;jettySize=auto;html=1;" parent="1" source="oTCH0D42XKPhX5KPXZE4-9" target="oTCH0D42XKPhX5KPXZE4-11" edge="1">
                    <mxGeometry relative="1" as="geometry"/>
                </mxCell>
                <mxCell id="oTCH0D42XKPhX5KPXZE4-9" value="ingrese la altura" style="shape=document;whiteSpace=wrap;html=1;boundedLbl=1;" parent="1" vertex="1">
                    <mxGeometry x="330" y="505" width="120" height="80" as="geometry"/>
                </mxCell>
                <mxCell id="oTCH0D42XKPhX5KPXZE4-14" value="" style="edgeStyle=orthogonalEdgeStyle;rounded=0;orthogonalLoop=1;jettySize=auto;html=1;" parent="1" source="oTCH0D42XKPhX5KPXZE4-11" target="oTCH0D42XKPhX5KPXZE4-13" edge="1">
                    <mxGeometry relative="1" as="geometry"/>
                </mxCell>
                <mxCell id="oTCH0D42XKPhX5KPXZE4-11" value="&amp;nbsp;se guarda Altura" style="shape=parallelogram;perimeter=parallelogramPerimeter;whiteSpace=wrap;html=1;fixedSize=1;" parent="1" vertex="1">
                    <mxGeometry x="330" y="610" width="120" height="60" as="geometry"/>
                </mxCell>
                <mxCell id="oTCH0D42XKPhX5KPXZE4-16" value="" style="edgeStyle=orthogonalEdgeStyle;rounded=0;orthogonalLoop=1;jettySize=auto;html=1;" parent="1" source="oTCH0D42XKPhX5KPXZE4-13" target="oTCH0D42XKPhX5KPXZE4-15" edge="1">
                    <mxGeometry relative="1" as="geometry"/>
                </mxCell>
                <mxCell id="oTCH0D42XKPhX5KPXZE4-13" value="area = (base*altura)/2" style="whiteSpace=wrap;html=1;" parent="1" vertex="1">
                    <mxGeometry x="330" y="710" width="120" height="60" as="geometry"/>
                </mxCell>
                <mxCell id="3" value="" style="edgeStyle=orthogonalEdgeStyle;rounded=0;orthogonalLoop=1;jettySize=auto;html=1;" edge="1" parent="1" source="oTCH0D42XKPhX5KPXZE4-15" target="2">
                    <mxGeometry relative="1" as="geometry"/>
                </mxCell>
                <mxCell id="oTCH0D42XKPhX5KPXZE4-15" value="&quot;El area del rectangulo es: &quot;, area" style="shape=document;whiteSpace=wrap;html=1;boundedLbl=1;" parent="1" vertex="1">
                    <mxGeometry x="330" y="820" width="120" height="80" as="geometry"/>
                </mxCell>
                <mxCell id="2" value="Fin" style="ellipse;whiteSpace=wrap;html=1;fillColor=#60a917;strokeColor=#2D7600;fontColor=#ffffff;" vertex="1" parent="1">
                    <mxGeometry x="330" y="990" width="120" height="60" as="geometry"/>
                </mxCell>
            </root>
        </mxGraphModel>
    </diagram>
</mxfile>